<?xml version="1.0" standalone="no"?>
<!DOCTYPE svg PUBLIC "-//W3C//DTD SVG 20010904//EN"
 "http://www.w3.org/TR/2001/REC-SVG-20010904/DTD/svg10.dtd">
<svg version="1.0" xmlns="http://www.w3.org/2000/svg"
 width="73.000000pt" height="179.000000pt" viewBox="0 0 73.000000 179.000000"
 preserveAspectRatio="xMidYMid meet">

<g transform="translate(0.000000,179.000000) scale(0.100000,-0.100000)"
fill="#000000" stroke="none">
<path d="M176 1533 c-60 -131 -111 -246 -114 -255 -4 -16 5 -18 81 -18 l85 0
63 150 c35 82 65 147 68 144 4 -3 33 -69 66 -147 l60 -142 88 -3 c48 -1 87 -1
87 2 0 3 -51 117 -114 253 l-113 248 -74 3 -74 2 -109 -237z"/>
<path d="M10 970 c0 -64 2 -70 23 -75 306 -72 667 -155 676 -155 7 0 11 25 11
70 l0 69 -37 10 c-76 20 -647 151 -660 151 -9 0 -13 -19 -13 -70z"/>
<path d="M62 503 c3 -10 54 -125 114 -256 l109 -237 73 2 74 3 114 248 c63
136 114 250 114 253 0 2 -39 3 -87 2 l-87 -3 -61 -142 c-34 -79 -64 -145 -66
-147 -3 -3 -32 61 -66 142 l-61 147 -87 3 c-80 3 -87 1 -83 -15z"/>
</g>
</svg>
