<?xml version="1.0" standalone="no"?>
<!DOCTYPE svg PUBLIC "-//W3C//DTD SVG 20010904//EN"
 "http://www.w3.org/TR/2001/REC-SVG-20010904/DTD/svg10.dtd">
<svg version="1.0" xmlns="http://www.w3.org/2000/svg"
 width="500.000000pt" height="500.000000pt" viewBox="0 0 500.000000 500.000000"
 preserveAspectRatio="xMidYMid meet">

<g transform="translate(0.000000,500.000000) scale(0.100000,-0.100000)"
fill="#000000" stroke="none">
<path d="M0 2500 l0 -2500 2500 0 2500 0 0 2500 0 2500 -2500 0 -2500 0 0
-2500z m2696 627 c63 -136 114 -250 114 -252 0 -3 -39 -5 -87 -5 l-88 0 -47
113 c-26 61 -55 130 -64 152 l-16 39 -63 -149 -63 -150 -91 -3 -91 -3 43 93
c24 51 77 166 118 256 l74 162 73 -2 74 -3 114 -248z m172 -705 c2 -54 0 -72
-10 -72 -12 0 -638 144 -680 156 -15 4 -18 17 -18 78 l0 73 353 -82 352 -82 3
-71z m-423 -447 l63 -150 16 40 c9 22 38 90 64 150 l47 110 88 3 c48 1 87 -1
86 -5 0 -4 -51 -118 -113 -253 l-113 -245 -74 -3 -74 -3 -109 238 c-60 131
-111 246 -114 256 -4 16 3 18 83 15 l87 -3 63 -150z"/>
</g>
</svg>
